<!-- CC0-1.0: public domain dedication, https://creativecommons.org/publicdomain/zero/1.0/ -->
<svg xmlns="http://www.w3.org/2000/svg" width="24" height="24" viewBox="0 0 24 24">
  <g fill="#000">
    <path fill-rule="evenodd" d="M 4.5,3 H 9 A 1.5,1.5 0 0 1 10.5,4.5 V 9 A 1.5,1.5 0 0 1 9,10.5 H 4.5 A 1.5,1.5 0 0 1 3,9 V 4.5 A 1.5,1.5 0 0 1 4.5,3 Z M 4.5,4.5 V 9 H 9 V 4.5 Z"/>
    <path fill-rule="evenodd" d="M 15,3 H 19.5 A 1.5,1.5 0 0 1 21,4.5 V 9 A 1.5,1.5 0 0 1 19.5,10.5 H 15 A 1.5,1.5 0 0 1 13.5,9 V 4.5 A 1.5,1.5 0 0 1 15,3 Z M 15,4.5 V 9 H 19.5 V 4.5 Z"/>
    <path fill-rule="evenodd" d="M 4.5,13.5 H 9 A 1.5,1.5 0 0 1 10.5,15 V 19.5 A 1.5,1.5 0 0 1 9,21 H 4.5 A 1.5,1.5 0 0 1 3,19.5 V 15 A 1.5,1.5 0 0 1 4.5,13.5 Z M 4.5,15 V 19.5 H 9 V 15 Z"/>
    <path fill-rule="evenodd" d="M 15,13.5 H 19.5 A 1.5,1.5 0 0 1 21,15 V 19.5 A 1.5,1.5 0 0 1 19.5,21 H 15 A 1.5,1.5 0 0 1 13.5,19.5 V 15 A 1.5,1.5 0 0 1 15,13.5 Z M 15,15 V 19.5 H 19.5 V 15 Z"/>
  </g>
</svg>
