<!-- CC0-1.0: public domain dedication, https://creativecommons.org/publicdomain/zero/1.0/ -->
<svg xmlns="http://www.w3.org/2000/svg" width="24" height="24" viewBox="0 0 24 24">
  <g fill="#000">
    <path d="M 12,3.1992188 A 0.80000001,0.80000001 0 0 0 11.199219,4 V 20 A 0.80000001,0.80000001 0 0 0 12,20.800781 0.80000001,0.80000001 0 0 0 12.800781,20 V 4 A 0.80000001,0.80000001 0 0 0 12,3.1992188 Z M 8,6.1992187 A 0.80000001,0.80000001 0 0 0 7.1992187,7 V 17 A 0.80000001,0.80000001 0 0 0 8,17.800781 0.80000001,0.80000001 0 0 0 8.8007813,17 V 7 A 0.80000001,0.80000001 0 0 0 8,6.1992187 Z m 8,1 A 0.80000001,0.80000001 0 0 0 15.199219,8 v 8 A 0.80000001,0.80000001 0 0 0 16,16.800781 0.80000001,0.80000001 0 0 0 16.800781,16 V 8 A 0.80000001,0.80000001 0 0 0 16,7.1992187 Z M 4,9.1992188 A 0.80000001,0.80000001 0 0 0 3.1992188,10 v 4 A 0.80000001,0.80000001 0 0 0 4,14.800781 0.80000001,0.80000001 0 0 0 4.8007812,14 V 10 A 0.80000001,0.80000001 0 0 0 4,9.1992188 Z M 20,10.199219 A 0.80000001,0.80000001 0 0 0 19.199219,11 v 2 A 0.80000001,0.80000001 0 0 0 20,13.800781 0.80000001,0.80000001 0 0 0 20.800781,13 V 11 A 0.80000001,0.80000001 0 0 0 20,10.199219 Z"/>
  </g>
</svg>
