<!-- CC0-1.0: public domain dedication, https://creativecommons.org/publicdomain/zero/1.0/ -->
<svg xmlns="http://www.w3.org/2000/svg" width="24" height="24" viewBox="0 0 24 24">
  <g fill="#000">
    <path fill-rule="evenodd" d="M9.481,7.877 L11.252,3.216 L11.324,3.072 L11.423,2.946 L11.546,2.841 L11.687,2.764 L11.840,2.716 L12,2.700 L12.160,2.716 L12.313,2.764 L12.454,2.841 L12.577,2.946 L12.676,3.072 L12.748,3.216 L14.519,7.877 L19.279,9.650 L19.424,9.722 L19.552,9.821 L19.657,9.944 L19.735,10.085 L19.784,10.239 L19.800,10.400 L19.784,10.561 L19.735,10.715 L19.657,10.856 L19.552,10.979 L19.424,11.078 L19.279,11.150 L14.519,12.923 L12.748,17.584 L12.676,17.728 L12.577,17.854 L12.454,17.959 L12.313,18.036 L12.160,18.084 L12,18.100 L11.840,18.084 L11.687,18.036 L11.546,17.959 L11.423,17.854 L11.324,17.728 L11.252,17.584 L9.481,12.923 L4.721,11.150 L4.576,11.078 L4.448,10.979 L4.343,10.856 L4.265,10.715 L4.216,10.561 L4.200,10.400 L4.216,10.239 L4.265,10.085 L4.343,9.944 L4.448,9.821 L4.576,9.722 L4.721,9.650 Z M13.152,8.784 L12,5.752 L10.848,8.784 L10.771,8.936 L10.664,9.068 L10.531,9.174 L10.379,9.250 L7.292,10.400 L10.379,11.550 L10.531,11.626 L10.664,11.732 L10.771,11.864 L10.848,12.016 L12,15.048 L13.152,12.016 L13.229,11.864 L13.336,11.732 L13.469,11.626 L13.621,11.550 L16.708,10.400 L13.621,9.250 L13.469,9.174 L13.336,9.068 L13.229,8.936 Z M17.085,16.885 L17.757,15.203 L17.830,15.062 L17.930,14.939 L18.051,14.838 L18.191,14.762 L18.342,14.716 L18.500,14.700 L18.658,14.716 L18.809,14.762 L18.949,14.838 L19.070,14.939 L19.170,15.062 L19.243,15.203 L19.915,16.885 L21.597,17.557 L21.738,17.630 L21.861,17.730 L21.962,17.851 L22.038,17.991 L22.084,18.142 L22.100,18.300 L22.084,18.458 L22.038,18.609 L21.962,18.749 L21.861,18.870 L21.738,18.970 L21.597,19.043 L19.915,19.715 L19.243,21.397 L19.170,21.538 L19.070,21.661 L18.949,21.762 L18.809,21.838 L18.658,21.884 L18.500,21.900 L18.342,21.884 L18.191,21.838 L18.051,21.762 L17.930,21.661 L17.830,21.538 L17.757,21.397 L17.085,19.715 L15.403,19.043 L15.262,18.970 L15.139,18.870 L15.038,18.749 L14.962,18.609 L14.916,18.458 L14.900,18.300 L14.916,18.142 L14.962,17.991 L15.038,17.851 L15.139,17.730 L15.262,17.630 L15.403,17.557 Z M18.500,17.654 L18.368,17.940 L18.266,18.066 L18.140,18.168 L17.854,18.300 L18.140,18.432 L18.266,18.534 L18.368,18.660 L18.500,18.946 L18.632,18.660 L18.734,18.534 L18.860,18.432 L19.146,18.300 L18.860,18.168 L18.734,18.066 L18.632,17.940 Z"/>
  </g>
</svg>
